# xmcd
#
# Track frame offsets:
# 150
# 26160
# 48588
# 80716
# 111751
# 127348
# 170295
#
# Disc length: 2741 seconds
#
#
# Revision: 0
# Processed by: cddbd v1.5.2PL0 Copyright (c) Steve Scherf et al.
# Submitted via: Nero 7, 11, 10, 0 
#
DISCID=600ab307
DTITLE=Terry Hanck - Live and Raw
DYEAR=1997
DGENRE=Blues
TTITLE0=Mexico
TTITLE1=Ya Ya
TTITLE2=Cryin' Fool
TTITLE3=Let A Woman Be A Woman
TTITLE4=Saxso-Borracho
TTITLE5=Slip Away
TTITLE6=Walk That Walk
EXTD=
EXTT0=Mexico
EXTT1=Ya Ya
EXTT2=Cryin' Fool
EXTT3=Let A Woman Be A Woman
EXTT4=Saxso-Borracho
EXTT5=Slip Away
EXTT6=Walk That Walk
PLAYORDER=
